:SAMPLES-PER-SECOND 30
:FULLY-SPECIFIED
:DEGREES
293
root  22.8396 38.8903 29.7106 -1.79434 0.857652 2.39236
RightUpLeg  -30.2526 -16.9668 7.38489
RightLeg  38.387 7.37296 -8.53743
RightFoot  4.23662 -0.199901 1.12566
RightToes  5.82077e-011 -3.18055e-015 -2.98177e-016
Spine  8.6107 -1.18104 -9.00056
Spine1  2.05669 -3.07758 7.1977
HEad  -14.7617 2.59674 0.163204
LeftShoulder1  -3.88251e-019 9.70628e-020 -3.87848e-018
LeftArm  -13.4477 46.8741 -57.6259
LeftForeArm  -12.6025 -19.3136 -2.30281
LeftHand  -0.569453 -1.55221 10.2545
RightShoulder  7.46787 10.5548 35.1736
RightArm  9.84199 -46.1737 15.3177
RightForeArm  7.20231 16.3617 -6.54082
RightHand  -1.49828 5.21655 -16.2267
LeftUpLeg  3.61218 -0.632004 -7.84368
LeftLeg  18.2425 6.91726 8.14868
LeftFoot  -17.4131 -0.0721592 -0.662154
LeftToes  7.79675e-011 9.80247e-012 -3.28897e-011
294
root  22.9198 38.8389 30.8708 -1.22526 0.843984 1.92828
RightUpLeg  -28.1211 -17.1261 8.69544
RightLeg  23.7726 6.85091 -4.5239
RightFoot  6.28157 -0.508206 2.76817
RightToes  5.82077e-011 -3.18055e-015 -2.98177e-016
Spine  8.21887 -1.46782 -9.6719
Spine1  2.36056 -3.68222 9.22718
HEad  -15.7557 2.73889 0.684431
LeftShoulder1  -3.88251e-019 9.70628e-020 -3.87848e-018
LeftArm  -9.80052 43.6892 -56.5724
LeftForeArm  -11.9868 -20.7473 -1.81554
LeftHand  -0.658702 -2.47465 10.4088
RightShoulder  7.52534 10.5706 35.4291
RightArm  6.51369 -46.4936 13.1416
RightForeArm  7.39166 13.6164 -5.5609
RightHand  -1.21357 3.67482 -15.3657
LeftUpLeg  5.70773 -0.247834 -7.24422
LeftLeg  16.807 6.73861 7.45981
LeftFoot  -18.0777 -0.113164 -1.46587
LeftToes  7.79675e-011 9.80247e-012 -3.28897e-011
295
root  22.9553 38.7741 32.1299 -0.788896 0.951127 1.52569
RightUpLeg  -23.5343 -8.93689 5.6372
RightLeg  8.89931 0.568139 0.694789
RightFoot  7.91131 -0.668927 3.38678
RightToes  5.82077e-011 -3.18055e-015 -2.98177e-016
Spine  7.76423 -1.70888 -9.77785
Spine1  2.61765 -4.11569 10.4517
HEad  -16.0597 2.54083 1.11217
LeftShoulder1  -3.88251e-019 9.70628e-020 -3.87848e-018
LeftArm  -6.89779 41.375 -56.0442
LeftForeArm  -12.2175 -22.0353 -0.963366
LeftHand  -0.774868 -3.21686 11.148
RightShoulder  7.54373 10.5928 35.4727
RightArm  4.82628 -47.3145 11.1421
RightForeArm  8.85704 10.0875 -5.24676
RightHand  -1.07423 2.90544 -14.8464
LeftUpLeg  7.74991 0.0899844 -6.56706
LeftLeg  15.9186 5.98928 6.95174
LeftFoot  -18.4397 -0.196238 -3.14427
LeftToes  7.79675e-011 9.80247e-012 -3.28897e-011
296
root  22.9371 38.661 33.5205 -0.892834 1.38366 1.1543
RightUpLeg  -19.6447 2.95483 1.91753
RightLeg  -1.18417 -7.61339 3.63283
RightFoot  9.60677 -0.243966 1.02809
RightToes  5.82077e-011 -3.18055e-015 -2.98177e-016
Spine  7.36007 -1.93812 -9.46679
Spine1  3.30042 -4.51873 11.2907
HEad  -15.8173 2.00798 1.34287
LeftShoulder1  -3.88251e-019 9.70628e-020 -3.87848e-018
LeftArm  -4.39919 40.1401 -56.1964
LeftForeArm  -15.1508 -23.7562 0.557777
LeftHand  -0.843152 -3.48522 11.7386
RightShoulder  7.53902 10.6118 35.4069
RightArm  4.06455 -48.1904 9.38161
RightForeArm  12.5671 5.79104 -5.36
RightHand  -1.03291 3.11161 -13.9535
LeftUpLeg  9.99213 -0.104115 -5.90323
LeftLeg  16.0831 5.05095 6.93356
LeftFoot  -18.3103 -0.254226 -4.49508
LeftToes  7.79675e-011 9.80247e-012 -3.28897e-011
297
root  22.8707 38.5435 34.952 -1.21368 1.80579 0.0427424
RightUpLeg  -19.0688 4.14435 3.91133
RightLeg  -0.605991 -5.66718 1.70802
RightFoot  11.3644 0.782214 -3.82832
RightToes  5.82077e-011 -3.18055e-015 -2.98177e-016
Spine  6.90012 -2.17044 -7.71189
Spine1  4.72963 -4.84957 12.0642
HEad  -15.5592 1.27606 1.42582
LeftShoulder1  -3.88251e-019 9.70628e-020 -3.87848e-018
LeftArm  -3.06945 39.9993 -57.0424
LeftForeArm  -19.504 -25.9774 2.7665
LeftHand  -0.851935 -3.64844 11.6412
RightShoulder  7.62248 10.6546 35.7308
RightArm  3.26719 -48.4381 7.70955
RightForeArm  18.2589 1.5219 -5.72327
RightHand  -0.822067 3.15158 -11.0155
LeftUpLeg  11.8306 0.344548 -3.96895
LeftLeg  17.5701 3.34305 7.00487
LeftFoot  -17.9445 -0.328794 -6.50509
LeftToes  7.79675e-011 9.80247e-012 -3.28897e-011
298
root  22.7796 38.3884 36.4315 -1.28748 1.7984 -1.93688
RightUpLeg  -20.454 4.68056 6.20569
RightLeg  6.47348 -5.17415 -0.551635
RightFoot  11.6388 1.53301 -7.1993
RightToes  5.82077e-011 -3.18055e-015 -2.98177e-016
Spine  6.42403 -2.40649 -4.41687
Spine1  5.59746 -4.81031 12.1641
HEad  -15.3519 0.705156 1.45717
LeftShoulder1  -3.88251e-019 9.70628e-020 -3.87848e-018
LeftArm  -4.58387 41.3767 -58.3689
LeftForeArm  -21.7648 -28.3622 4.77062
LeftHand  -0.834536 -4.08885 10.8803
RightShoulder  7.79094 10.7222 36.4216
RightArm  2.97399 -48.2337 6.0837
RightForeArm  24.3916 -1.42919 -6.20237
RightHand  -0.457406 2.78156 -6.46753
LeftUpLeg  11.6865 2.18346 -0.30682
LeftLeg  22.4181 0.28715 7.27387
LeftFoot  -17.1394 -0.423756 -11.0451
LeftToes  7.79675e-011 9.80247e-012 -3.28897e-011
299
root  22.7184 38.3358 37.8974 -0.882536 1.52111 -4.43072
RightUpLeg  -20.9007 4.90753 8.59132
RightLeg  11.4586 -5.42659 -1.32077
RightFoot  9.4063 1.42166 -7.28174
RightToes  5.82077e-011 -3.18055e-015 -2.98177e-016
Spine  6.61172 -2.65981 -0.444896
Spine1  4.45782 -4.4991 11.9
HEad  -14.6946 0.5241 1.47486
LeftShoulder1  -3.88251e-019 9.70628e-020 -3.87848e-018
LeftArm  -8.76816 44.4897 -60.2842
LeftForeArm  -21.5138 -30.2986 5.58317
LeftHand  -0.864361 -4.74787 10.5144
RightShoulder  7.85465 10.7565 36.661
RightArm  3.54482 -48.3482 4.8417
RightForeArm  29.6984 -2.40763 -6.44772
RightHand  -0.233239 3.04808 -3.26789
LeftUpLeg  8.21529 3.6116 3.71372
LeftLeg  31.5976 -2.33308 8.53992
LeftFoot  -12.3513 0.0766978 -15.1078
LeftToes  7.79675e-011 9.80247e-012 -3.28897e-011
300
root  22.6914 38.4246 39.3064 -0.559171 1.81729 -6.51683
RightUpLeg  -20.0576 4.92665 10.4637
RightLeg  14.0346 -5.90295 -1.5071
RightFoot  4.8455 0.933705 -6.03258
RightToes  5.82077e-011 -3.18055e-015 -2.98177e-016
Spine  7.91369 -2.89973 2.10714
Spine1  1.85566 -4.43499 12.7528
HEad  -13.4678 0.418748 1.6058
LeftShoulder1  -3.88251e-019 9.70628e-020 -3.87848e-018
LeftArm  -12.6722 48.1843 -63.4148
LeftForeArm  -22.493 -30.772 5.6445
LeftHand  -0.992671 -5.30603 11.4087
RightShoulder  7.69703 10.7167 35.9656
RightArm  4.44145 -48.905 4.58987
RightForeArm  32.4591 -1.911 -6.28034
RightHand  -0.252468 4.35035 -3.04645
LeftUpLeg  1.87084 2.83374 6.28105
LeftLeg  43.3775 -3.47002 11.3915
LeftFoot  -0.977466 1.29174 -12.9848
LeftToes  7.79675e-011 9.80247e-012 -3.28897e-011
301
root  22.6614 38.477 40.5858 -1.06587 3.17725 -7.67392
RightUpLeg  -18.4391 4.23302 11.6115
RightLeg  16.3482 -6.34419 -2.16498
RightFoot  0.637847 0.610986 -5.12112
RightToes  5.82077e-011 -3.18055e-015 -2.98177e-016
Spine  9.73063 -3.23099 2.93537
Spine1  0.12065 -4.73548 14.9792
HEad  -12.2623 -0.192857 2.09704
LeftShoulder1  -3.88251e-019 9.70628e-020 -3.87848e-018
LeftArm  -15.1774 50.5746 -67.5075
LeftForeArm  -24.6337 -29.3107 5.06655
LeftHand  -1.04885 -5.35453 12.0082
RightShoulder  7.50248 10.6607 35.116
RightArm  4.7952 -49.1873 5.54897
RightForeArm  31.0411 -0.662091 -5.84079
RightHand  -0.40242 5.51184 -4.36331
LeftUpLeg  -5.36288 0.555435 7.30383
LeftLeg  54.4559 -4.68816 14.7682
LeftFoot  12.4489 1.27617 -5.46578
LeftToes  7.79675e-011 9.80247e-012 -3.28897e-011
302
root  22.6224 38.4515 41.8467 -2.13363 4.53856 -8.00219
RightUpLeg  -16.4239 3.21629 12.2277
RightLeg  18.8809 -6.5157 -3.43597
RightFoot  -2.33949 0.391638 -4.09957
RightToes  5.82077e-011 -3.18055e-015 -2.98177e-016
Spine  10.686 -3.39857 3.62427
Spine1  0.250124 -4.76264 16.0983
HEad  -11.4928 -1.35426 2.95113
LeftShoulder1  -3.88251e-019 9.70628e-020 -3.87848e-018
LeftArm  -17.1813 51.3572 -70.7992
LeftForeArm  -24.3053 -26.5445 3.474
LeftHand  -0.755273 -4.44058 9.40531
RightShoulder  7.51708 10.6574 35.1955
RightArm  4.4142 -48.6104 7.36119
RightForeArm  26.1951 1.06911 -5.41381
RightHand  -0.562316 5.411 -6.11645
LeftUpLeg  -11.4012 -0.590388 7.46653
LeftLeg  62.356 -5.72508 18.2031
LeftFoot  19.6013 0.0357402 0.213483
LeftToes  7.79675e-011 9.80247e-012 -3.28897e-011
